<?xml version="1.0" encoding="UTF-8"?>
<svg width="128pt" height="128pt" version="1.1" viewBox="0 0 128 128" xmlns="http://www.w3.org/2000/svg">
 <path d="m108.59 14.684h-89.172c-8.918 0-16.215 7.2969-16.215 16.215v66.203c0 8.918 7.2969 16.215 16.215 16.215h89.172c8.918 0 16.215-7.2969 16.215-16.215v-66.203c0-8.918-7.2969-16.215-16.215-16.215zm-29.953 14.824c5.1055 0 9.2422 4.1328 9.2422 9.2266s-4.1328 9.2266-9.2422 9.2266c-5.0938 0-9.2266-4.1328-9.2266-9.2266s4.1328-9.2266 9.2266-9.2266zm35.047 49.516c-0.66016 0.64844-1.5273 0.98437-2.3906 0.98437-0.86328 0-1.7305-0.33594-2.3906-0.98437l-8.6328-8.6328c-2.6875-2.6875-7.0664-2.6875-9.7812 0l-5.4453 5.457c-5.3359 5.3242-14.012 5.3242-19.336 0.011719l-19.09-19.09c-1.2969-1.3125-3.0391-2.0273-4.8789-2.0273-1.8516 0-3.5938 0.71484-4.8906 2.0273l-17.738 17.738c-1.3242 1.3086-3.457 1.3086-4.7812 0-1.3125-1.3242-1.3125-3.457 0-4.7812l17.738-17.738c2.582-2.582 6.0117-4 9.6758-4 3.6484 0 7.0781 1.418 9.6602 4l19.078 19.09c2.6875 2.6875 7.0938 2.6875 9.7969 0l5.4453-5.4727c5.3359-5.3242 14.012-5.3242 19.336 0l8.6328 8.6328c1.3047 1.3281 1.3047 3.4609-0.007812 4.7852z"/>
</svg>
