<?xml version="1.0" encoding="UTF-8" standalone="no"?>
<svg
   width="128pt"
   height="128pt"
   version="1.1"
   viewBox="0 0 128 128"
   id="svg616"
   sodipodi:docname="border.svg"
   inkscape:version="1.2 (dc2aedaf03, 2022-05-15)"
   xmlns:inkscape="http://www.inkscape.org/namespaces/inkscape"
   xmlns:sodipodi="http://sodipodi.sourceforge.net/DTD/sodipodi-0.dtd"
   xmlns="http://www.w3.org/2000/svg"
   xmlns:svg="http://www.w3.org/2000/svg">
  <defs
     id="defs620" />
  <sodipodi:namedview
     id="namedview618"
     pagecolor="#ffffff"
     bordercolor="#000000"
     borderopacity="0.25"
     inkscape:showpageshadow="2"
     inkscape:pageopacity="0.0"
     inkscape:pagecheckerboard="0"
     inkscape:deskcolor="#d1d1d1"
     inkscape:document-units="pt"
     showgrid="false"
     inkscape:zoom="5.0039063"
     inkscape:cx="85.233411"
     inkscape:cy="85.333333"
     inkscape:window-width="1835"
     inkscape:window-height="1057"
     inkscape:window-x="1912"
     inkscape:window-y="-8"
     inkscape:window-maximized="1"
     inkscape:current-layer="svg616" />
  <path
     id="path606"
     d="m 16.000488,5.3320313 c -5.890594,0 -10.6684567,4.7777627 -10.6684567,10.6684567 V 48 c 0,5.890594 4.7777627,10.668457 10.6684567,10.668457 5.890694,0 10.666992,-4.777763 10.666992,-10.668457 V 26.66748 H 48 c 5.890594,0 10.668457,-4.776298 10.668457,-10.666992 C 58.668457,10.109794 53.890694,5.3320313 48,5.3320313 Z m 63.999024,0 c -5.890594,0 -10.666992,4.7777627 -10.666992,10.6684567 0,5.890694 4.776298,10.666992 10.666992,10.666992 H 101.33203 V 48 c 0,5.890594 4.77776,10.668457 10.66846,10.668457 5.89069,0 10.66699,-4.777763 10.66699,-10.668457 V 16.000488 c 0,-2.828097 -1.12451,-5.543947 -3.12451,-7.543945 -2,-1.999998 -4.71428,-3.1245117 -7.54248,-3.1245117 z M 16.000488,69.32959 c -5.890694,0 -10.6684567,4.777763 -10.6684567,10.668457 v 31.999513 c 0,2.8281 1.1245137,5.54395 3.1245117,7.54394 1.999998,2 4.715748,3.12452 7.543945,3.12452 H 48 c 5.890594,0 10.668457,-4.77777 10.668457,-10.66846 0,-5.8907 -4.777763,-10.66699 -10.668457,-10.66699 H 26.66748 V 79.998047 c 0,-5.890594 -4.776298,-10.668457 -10.666992,-10.668457 z m 96.000002,0.0029 c -5.8906,0 -10.66846,4.776298 -10.66846,10.666992 V 101.33203 H 79.999512 c -5.890594,0 -10.666992,4.77776 -10.666992,10.66846 0,5.89069 4.776298,10.66699 10.666992,10.66699 h 32.000978 c 2.8281,0 5.54248,-1.12451 7.54248,-3.12451 2,-2 3.12451,-4.71428 3.12451,-7.54248 V 79.999512 c 0,-2.828097 -1.12451,-5.542483 -3.12451,-7.542481 -2,-1.999998 -4.71428,-3.124511 -7.54248,-3.124511 z" />
</svg>
