<?xml version="1.0" encoding="UTF-8" standalone="no"?>
<svg
   width="128pt"
   height="128pt"
   version="1.1"
   viewBox="0 0 128 128"
   id="svg4776"
   sodipodi:docname="button.svg"
   inkscape:version="1.2 (dc2aedaf03, 2022-05-15)"
   xmlns:inkscape="http://www.inkscape.org/namespaces/inkscape"
   xmlns:sodipodi="http://sodipodi.sourceforge.net/DTD/sodipodi-0.dtd"
   xmlns="http://www.w3.org/2000/svg"
   xmlns:svg="http://www.w3.org/2000/svg">
  <defs
     id="defs4780" />
  <sodipodi:namedview
     id="namedview4778"
     pagecolor="#ffffff"
     bordercolor="#000000"
     borderopacity="0.25"
     inkscape:showpageshadow="2"
     inkscape:pageopacity="0.0"
     inkscape:pagecheckerboard="0"
     inkscape:deskcolor="#d1d1d1"
     inkscape:document-units="pt"
     showgrid="false"
     inkscape:zoom="5.0039062"
     inkscape:cx="85.733022"
     inkscape:cy="92.527714"
     inkscape:window-width="1835"
     inkscape:window-height="1057"
     inkscape:window-x="1912"
     inkscape:window-y="-8"
     inkscape:window-maximized="1"
     inkscape:current-layer="svg4776" />
  <path
     d="M 107.14,63.742 V 33.281 c 0,-13.059 -18.562,-22.914 -43.137,-22.914 -24.575,0 -43.137,9.8555 -43.137,22.91 v 0.89453 29.566 c -11.902,6.0234 -19.199,14.34 -19.199,23.941 0,18.434 27.391,32.895 62.336,32.895 34.945,0 62.336,-14.465 62.336,-32.895 -0.12891,-9.6016 -7.2969,-17.918 -19.199,-23.938 z M 64.003,18.558 c 20.098,0 35.07,7.8086 35.07,14.719 0,6.9104 -14.977,14.719 -35.07,14.719 -20.098,0 -35.07,-7.8086 -35.07,-14.719 0,-6.9104 14.973,-14.719 35.07,-14.719 z m 0,92.418 c -31.105,0 -52.734,-12.289 -52.734,-23.426 0,-4.3516 3.457,-8.9609 9.6016,-12.93 v 5.6328 c 0,13.055 18.559,22.91 43.137,22.91 24.574,0 43.137,-9.8555 43.137,-22.91 V 74.62 c 6.1445,3.9688 9.6016,8.5742 9.6016,12.93 -0.008,11.137 -21.637,23.426 -52.742,23.426 z"
     id="path4774"
     sodipodi:nodetypes="csssccsscccssssssscsssccss" />
</svg>
