<?xml version="1.0" encoding="UTF-8" standalone="no"?>
<svg
   width="128pt"
   height="128pt"
   version="1.1"
   viewBox="0 0 128 128"
   id="svg848"
   sodipodi:docname="change_page.svg"
   inkscape:version="1.2 (dc2aedaf03, 2022-05-15)"
   xmlns:inkscape="http://www.inkscape.org/namespaces/inkscape"
   xmlns:sodipodi="http://sodipodi.sourceforge.net/DTD/sodipodi-0.dtd"
   xmlns="http://www.w3.org/2000/svg"
   xmlns:svg="http://www.w3.org/2000/svg">
  <defs
     id="defs852" />
  <sodipodi:namedview
     id="namedview850"
     pagecolor="#ffffff"
     bordercolor="#000000"
     borderopacity="0.25"
     inkscape:showpageshadow="2"
     inkscape:pageopacity="0.0"
     inkscape:pagecheckerboard="0"
     inkscape:deskcolor="#d1d1d1"
     inkscape:document-units="pt"
     showgrid="false"
     inkscape:zoom="4.0620214"
     inkscape:cx="112.38247"
     inkscape:cy="76.316683"
     inkscape:window-width="1835"
     inkscape:window-height="1057"
     inkscape:window-x="1912"
     inkscape:window-y="-8"
     inkscape:window-maximized="1"
     inkscape:current-layer="svg848" />
  <path
     id="path3159"
     style="stroke:#000000;stroke-width:1;stroke-dasharray:none;stroke-opacity:1;paint-order:stroke fill markers"
     d="M 109.03564 4.0004883 C 108.52394 4.000482 108.01121 4.1958016 107.62061 4.5864258 L 97.249512 14.95752 C 97.065922 15.141108 96.917478 15.362792 96.815918 15.60498 C 96.612798 16.09326 96.612798 16.645109 96.815918 17.137207 C 96.917478 17.379397 97.062012 17.601068 97.249512 17.784668 L 107.62061 28.155762 C 108.01123 28.54638 108.5239 28.741699 109.03564 28.741699 C 109.54736 28.741699 110.05852 28.54639 110.44922 28.155762 C 111.23047 27.374513 111.23047 26.108348 110.44922 25.327148 L 103.49268 18.370605 L 120 18.370605 L 120 84.70752 C 120 85.813016 120.89404 86.707031 121.99951 86.707031 C 123.10498 86.707031 124.00049 85.812986 124.00049 84.70752 L 124.00049 16.371094 C 124.00049 15.265596 123.10498 14.371582 121.99951 14.371582 L 103.49268 14.371582 L 110.44922 7.4135742 C 111.23047 6.6323258 111.23047 5.3676242 110.44922 4.5864258 C 110.05859 4.1958266 109.54736 4.0004945 109.03564 4.0004883 z M 23.985352 16.08252 C 19.62986 16.08252 16.08252 19.624595 16.08252 23.983887 L 16.08252 30.128906 C 16.08252 30.132806 16.078125 30.136705 16.078125 30.140625 L 16.078125 71.219238 C 16.078125 73.328634 16.910666 75.305128 18.402832 76.773926 C 18.785642 77.156734 19.156711 77.467804 19.633301 77.791992 L 20.242676 78.166992 C 20.641114 78.377932 21.133767 78.617191 21.606445 78.738281 C 22.360355 78.988281 23.175763 79.120605 23.976563 79.120605 L 32.087402 79.120605 L 32.087402 104.01123 C 32.087402 105.58543 32.555178 107.11284 33.461426 108.45264 C 33.750484 108.8667 34.063479 109.23782 34.415039 109.58936 C 35.915037 111.08934 37.891155 111.91846 39.977051 111.91846 L 104.0083 111.91846 C 108.3677 111.91846 111.91406 108.37053 111.91406 104.01123 L 111.91406 62.950195 C 111.91406 62.946295 111.91846 62.942397 111.91846 62.938477 L 111.91846 56.777344 C 111.91846 54.667948 111.08592 52.691454 109.59375 51.222656 C 109.21094 50.839848 108.83987 50.527315 108.36328 50.203125 L 107.75391 49.828125 C 107.35547 49.617185 106.86428 49.379391 106.3916 49.258301 C 105.63769 49.008301 104.82082 48.875977 104.02002 48.875977 L 95.917969 48.875977 L 95.917969 30.137695 C 95.917969 30.125975 95.910645 30.118654 95.910645 30.106934 L 95.910645 23.980957 C 95.914545 19.625465 92.371499 16.08252 88.012207 16.08252 L 23.985352 16.08252 z M 23.983887 20.083008 L 88.015137 20.083008 C 90.167433 20.083008 91.91748 21.831591 91.91748 23.983887 L 91.91748 28.132324 L 20.081543 28.132324 L 20.081543 23.983887 C 20.081543 21.831591 21.831591 20.083008 23.983887 20.083008 z M 65.291016 21.597656 C 63.913093 21.597656 62.535645 22.516596 62.535645 24.354492 C 62.535645 28.030286 68.046387 28.030286 68.046387 24.354492 C 68.046387 22.516596 66.668937 21.597656 65.291016 21.597656 z M 74.381836 21.597656 C 73.003913 21.597656 71.625 22.516596 71.625 24.354492 C 71.625 28.030286 77.137207 28.030286 77.137207 24.354492 C 77.137207 22.516596 75.759759 21.597656 74.381836 21.597656 z M 83.466797 21.597656 C 82.088874 21.597656 80.711426 22.516596 80.711426 24.354492 C 80.711426 28.030286 86.223633 28.030286 86.223633 24.354492 C 86.223633 22.516596 84.844718 21.597656 83.466797 21.597656 z M 6 41.29834 C 4.8945322 41.29834 4.0004883 42.192384 4.0004883 43.297852 L 4.0004883 111.63428 C 4.0004883 112.73588 4.8945322 113.63086 6 113.63086 L 6 113.62939 L 24.508301 113.62939 L 17.550293 120.5874 C 16.769045 121.36865 16.769045 122.63335 17.550293 123.41455 C 17.940913 123.80518 18.453574 124.00049 18.965332 124.00049 C 19.477052 124.00049 19.988208 123.80518 20.378906 123.41455 L 30.75 113.04346 C 30.93359 112.85987 31.082034 112.63819 31.183594 112.396 C 31.386714 111.90772 31.386714 111.35587 31.183594 110.86377 C 31.082034 110.62158 30.9375 110.39991 30.75 110.21631 L 20.378906 99.845215 C 19.597658 99.063967 18.332956 99.063967 17.551758 99.845215 C 16.77056 100.62646 16.77051 101.89263 17.551758 102.67383 L 24.508301 109.63037 L 7.9995117 109.63037 L 7.9995117 43.297852 C 7.9995117 42.192354 7.1054678 41.29834 6 41.29834 z M 28.999512 46.999512 L 91.918945 46.999512 L 91.918945 48.878906 L 39.981445 48.878906 C 39.125977 48.878906 38.273517 49.023433 37.511719 49.289063 C 37.476559 49.300782 37.446289 49.316893 37.415039 49.328613 C 37.403319 49.332513 37.395017 49.332038 37.387207 49.335938 C 37.352047 49.351557 37.321287 49.362798 37.286133 49.378418 C 36.985353 49.487798 36.691405 49.613772 36.515625 49.715332 C 36.078125 49.922362 35.649374 50.175294 35.305664 50.444824 C 34.989254 50.683104 34.695797 50.949223 34.480957 51.164063 C 34.164547 51.453121 33.902351 51.762207 33.644531 52.105957 C 32.636733 53.445755 32.085938 55.109365 32.085938 56.789063 L 32.085938 75.128906 L 28.999512 75.128906 L 28.999512 46.999512 z M 39.972656 52.875 L 104.01563 52.875 C 104.39452 52.8789 104.7783 52.94092 105.25488 53.093262 L 105.25488 53.094727 C 105.41894 53.137697 105.60254 53.215815 105.75879 53.293945 L 106.16895 53.551758 C 106.3877 53.700198 106.57519 53.862798 106.77832 54.065918 C 107.5127 54.788576 107.91797 55.75444 107.91797 56.781738 L 107.91797 60.941895 L 36.079102 60.9375 L 36.079102 56.777344 C 36.079102 55.960936 36.348632 55.15278 36.84082 54.496582 C 36.94238 54.359862 37.040037 54.231445 37.250977 54.032227 C 37.383785 53.899417 37.531742 53.75879 37.715332 53.62207 C 37.855952 53.51269 38.027344 53.410156 38.308594 53.273438 C 38.421874 53.214848 38.551272 53.148436 38.746582 53.085938 C 39.145022 52.949218 39.570278 52.875 39.972656 52.875 z M 79.294922 54.401367 C 77.916999 54.401367 76.539551 55.319327 76.539551 57.155273 C 76.539551 60.831067 82.050293 60.831067 82.050293 57.155273 C 82.050293 55.319327 80.672843 54.401367 79.294922 54.401367 z M 88.385742 54.401367 C 87.007821 54.401367 85.628906 55.319327 85.628906 57.155273 C 85.628906 60.831067 91.141113 60.831067 91.141113 57.155273 C 91.141113 55.319327 89.763665 54.401367 88.385742 54.401367 z M 97.473633 54.401367 C 96.09571 54.401367 94.718262 55.319327 94.718262 57.155273 C 94.718262 60.831067 100.23047 60.831067 100.23047 57.155273 C 100.23047 55.319327 98.851554 54.401367 97.473633 54.401367 z M 21.350098 73.838379 C 21.976919 73.900225 24.233922 74.631887 26.137207 75.128906 L 23.985352 75.128906 C 23.610352 75.128906 23.227078 75.067376 22.750488 74.915039 C 22.586428 74.872069 22.402832 74.79395 22.246582 74.71582 L 21.836426 74.458008 C 21.617676 74.309568 21.430181 74.145503 21.227051 73.942383 C 21.135255 73.852051 21.187756 73.822361 21.350098 73.838379 z M 106.43994 107.04639 C 105.77108 107.58314 104.9342 107.91797 104.0127 107.91797 L 65.468262 107.91797 L 106.43994 107.04639 z " />
</svg>
