<?xml version="1.0" encoding="UTF-8" standalone="no"?>
<svg
   width="128pt"
   height="128pt"
   version="1.1"
   viewBox="0 0 128 128"
   id="svg711"
   sodipodi:docname="font.svg"
   inkscape:version="1.2 (dc2aedaf03, 2022-05-15)"
   xmlns:inkscape="http://www.inkscape.org/namespaces/inkscape"
   xmlns:sodipodi="http://sodipodi.sourceforge.net/DTD/sodipodi-0.dtd"
   xmlns="http://www.w3.org/2000/svg"
   xmlns:svg="http://www.w3.org/2000/svg">
  <defs
     id="defs715" />
  <sodipodi:namedview
     id="namedview713"
     pagecolor="#ffffff"
     bordercolor="#000000"
     borderopacity="0.25"
     inkscape:showpageshadow="2"
     inkscape:pageopacity="0.0"
     inkscape:pagecheckerboard="0"
     inkscape:deskcolor="#d1d1d1"
     inkscape:document-units="pt"
     showgrid="false"
     inkscape:zoom="5.0039063"
     inkscape:cx="85.233411"
     inkscape:cy="85.333333"
     inkscape:window-width="1835"
     inkscape:window-height="1057"
     inkscape:window-x="1912"
     inkscape:window-y="-8"
     inkscape:window-maximized="1"
     inkscape:current-layer="svg711" />
  <path
     id="path703"
     d="m 18.446777,7.3388672 c -0.57276,0 -1.146006,0.2148417 -1.589355,0.6445312 L 2.4125977,21.960938 c -0.6640594,0.648439 -0.8715792,1.636694 -0.5200196,2.496093 0.3476597,0.863279 1.1840705,1.425293 2.1137696,1.425293 h 8.1562503 v 75.840816 c 0,2.2539 0.89794,4.41363 2.491699,6.00733 1.593758,1.5937 3.753426,2.48877 6.007324,2.48877 h 87.090819 v 8.15625 h -0.004 c 0,0.92969 0.56737,1.7651 1.42675,2.1167 0.86328,0.34766 1.8516,0.13769 2.4961,-0.53028 l 13.97607,-14.44628 v -0.003 c 0.85156,-0.88672 0.85156,-2.28519 0,-3.17579 L 111.66943,87.890625 c -0.64844,-0.664059 -1.6323,-0.875003 -2.4917,-0.527344 -0.86327,0.34766 -1.42578,1.184071 -1.42968,2.11377 V 97.64502 H 24.739746 V 25.882324 h 8.15625 c 0.929689,0 1.766565,-0.561994 2.118164,-1.425293 0.34766,-0.859379 0.139645,-1.847694 -0.524414,-2.496093 L 20.033203,7.9833984 C 19.591799,7.5537089 19.019538,7.3388672 18.446777,7.3388672 Z m 47.745118,0.00439 c -6.199194,0 -10.371094,3.5469248 -10.371094,8.8242188 0,5.241774 4.16746,8.776775 10.369629,8.777343 h 0.0015 14.550293 v 53.840332 c 0,6.035195 3.198312,12.128907 10.308105,12.128907 7.050793,0 10.204092,-6.093712 10.204092,-12.128907 V 24.944824 h 14.5503 c 6.26169,0 10.47802,-3.531249 10.47802,-8.777344 0,-5.277294 -4.21583,-8.8242183 -10.47802,-8.8242183 z M 38.484375,38.629395 c -4.472696,0 -7.480957,2.558585 -7.480957,6.363281 0,3.781196 3.007767,6.331054 7.476562,6.331054 h 9.899415 l 0.0029,30.84375 c 0,4.355496 2.305187,8.742188 7.434082,8.742188 5.085895,0 7.359375,-4.386692 7.359375,-8.742188 l 0.0044,-30.848144 h 5.726074 l -0.0044,-12.689941 z" />
</svg>
