<?xml version="1.0" encoding="UTF-8" standalone="no"?>
<svg
   width="128pt"
   height="128pt"
   version="1.1"
   viewBox="0 0 128 128"
   id="svg4747"
   sodipodi:docname="maths.svg"
   inkscape:version="1.2 (dc2aedaf03, 2022-05-15)"
   xmlns:inkscape="http://www.inkscape.org/namespaces/inkscape"
   xmlns:sodipodi="http://sodipodi.sourceforge.net/DTD/sodipodi-0.dtd"
   xmlns="http://www.w3.org/2000/svg"
   xmlns:svg="http://www.w3.org/2000/svg">
  <defs
     id="defs4751" />
  <sodipodi:namedview
     id="namedview4749"
     pagecolor="#ffffff"
     bordercolor="#000000"
     borderopacity="0.25"
     inkscape:showpageshadow="2"
     inkscape:pageopacity="0.0"
     inkscape:pagecheckerboard="0"
     inkscape:deskcolor="#d1d1d1"
     inkscape:document-units="pt"
     showgrid="false"
     inkscape:zoom="5.0039063"
     inkscape:cx="85.333333"
     inkscape:cy="85.333333"
     inkscape:window-width="1835"
     inkscape:window-height="1057"
     inkscape:window-x="1912"
     inkscape:window-y="-8"
     inkscape:window-maximized="1"
     inkscape:current-layer="svg4747" />
  <path
     id="path4737"
     d="m 63.987305,2.671875 c -1.812498,0 -3.628413,0.6870068 -4.999512,2.0581055 L 40.504395,23.210449 c -2.738298,2.738297 -2.754386,7.269315 -0.01611,10.007813 L 58.987793,51.717773 C 61.72609,54.456071 66.261403,54.441447 69,51.703125 L 87.484863,33.218262 c 2.738298,-2.738298 2.738298,-7.257797 0,-9.996094 L 68.983887,4.7270508 C 67.612788,3.3598521 65.801268,2.671875 63.98877,2.671875 Z m 0,13.284668 h 0.0015 c 0.7065,-0.0035 1.385601,0.277682 1.885253,0.773437 0.50391,0.5 0.789551,1.17679 0.789551,1.88379 v 6.933105 h 6.933106 c 0.707029,0 1.383789,0.285651 1.883789,0.789551 0.496089,0.499999 0.777337,1.179719 0.773437,1.886719 -0.0039,1.464798 -1.192428,2.651861 -2.657226,2.655761 h -6.933106 v 6.949219 c 0,0.707029 -0.285651,1.382325 -0.789551,1.882324 -0.499999,0.49609 -1.178254,0.773438 -1.885253,0.773438 -1.464799,-0.0078 -2.653327,-1.190963 -2.657227,-2.655762 v -6.949219 h -6.949219 c -1.464798,-0.0039 -2.647962,-1.190963 -2.655761,-2.655761 0,-0.70703 0.277337,-1.38672 0.773437,-1.886719 0.5,-0.50391 1.175325,-0.789551 1.882324,-0.789551 h 6.949219 V 18.61377 c 0.0039,-1.464303 1.191647,-2.648634 2.655762,-2.657227 z M 28.190918,38.34375 c -1.816398,-0.0039 -3.636708,0.676733 -5.003906,2.047852 L 4.6904297,58.882324 c -2.7382973,2.738297 -2.7265975,7.27361 0.011719,10.012207 L 23.187012,87.379395 c 2.738297,2.738297 7.257796,2.738297 9.996093,0 L 51.678223,68.878418 c 2.738297,-2.738297 2.738297,-7.257797 0,-9.996094 L 33.194824,40.398926 C 31.827626,39.031727 30.007316,38.34765 28.190918,38.34375 Z m 71.613281,0 c -1.815909,0.0043 -3.628781,0.688839 -4.999511,2.05957 L 76.321289,58.886719 c -2.738297,2.738297 -2.738297,7.257796 0,9.996094 l 18.495117,18.499511 c 2.738298,2.738297 7.257794,2.738297 9.996094,0 l 18.48486,-18.483398 c 2.7383,-2.738297 2.75292,-7.27361 0.0147,-10.012207 L 104.8125,40.390137 c -1.37073,-1.370732 -3.18703,-2.04992 -5.006836,-2.046387 z m 0.0044,11.86377 h 0.0044 c 1.121101,0 2.195281,0.444803 2.988281,1.237793 0.79297,0.792969 1.23779,1.871576 1.23779,2.992675 0,1.121099 -0.4448,2.195282 -1.23779,2.988282 -0.79299,0.792999 -1.86718,1.237793 -2.988281,1.237793 -1.121099,0 -2.199676,-0.444804 -2.992675,-1.237793 -0.79297,-0.79297 -1.237793,-1.867183 -1.237793,-2.988282 0,-1.121099 0.444803,-2.199676 1.237793,-2.992675 0.791928,-0.791929 1.868767,-1.236626 2.988281,-1.237793 z m -78.496582,4.234863 c 0.730469,-0.02734 1.44525,0.249029 1.96875,0.764648 l 4.905761,4.907227 4.895508,-4.907227 c 0.48438,-0.476559 1.132313,-0.749028 1.812012,-0.764648 0.734379,-0.02734 1.44525,0.249029 1.96875,0.764648 0.503909,0.5 0.785156,1.180214 0.785156,1.891114 0,0.710939 -0.281247,1.391113 -0.785156,1.891113 l -4.902832,4.901367 4.902832,4.902832 v -0.0044 c 0.503909,0.503909 0.785156,1.184113 0.785156,1.891113 0,0.710939 -0.281247,1.391114 -0.785156,1.891113 -0.5,0.50391 -1.180214,0.788086 -1.891113,0.788086 -0.71094,0 -1.389649,-0.284186 -1.889649,-0.788086 l -4.895508,-4.907226 -4.905761,4.907226 c -1.042999,1.035199 -2.72272,1.035199 -3.761719,0 -0.50391,-0.499999 -0.785156,-1.180214 -0.785156,-1.891113 0,-0.70703 0.281246,-1.387214 0.785156,-1.891113 l 4.894043,-4.898438 -4.894043,-4.901367 c -0.50391,-0.5 -0.785156,-1.180214 -0.785156,-1.891113 0,-0.71094 0.281246,-1.391114 0.785156,-1.891114 0.480469,-0.472659 1.121069,-0.745118 1.792969,-0.764648 z m 68.898926,6.791015 h 19.195317 c 0.70703,-0.0039 1.38672,0.273438 1.88672,0.773438 0.50391,0.496089 0.78565,1.17679 0.78955,1.883789 -0.004,0.707029 -0.28565,1.382325 -0.78955,1.882324 -0.5,0.49609 -1.17973,0.773438 -1.88672,0.773438 H 90.210938 c -0.70703,0.0039 -1.385749,-0.273438 -1.889649,-0.773438 -0.503909,-0.496089 -0.789551,-1.175325 -0.789551,-1.882324 0,-0.710939 0.285652,-1.386719 0.789551,-1.886719 0.50391,-0.496089 1.182649,-0.774418 1.889649,-0.770508 z m 9.597656,8.144532 h 0.0044 c 1.121101,0 2.195281,0.446268 2.988281,1.239258 0.79297,0.792969 1.23779,1.870112 1.23779,2.99121 0,1.121099 -0.4448,2.195282 -1.23779,2.988282 -0.79297,0.792969 -1.86718,1.239258 -2.988281,1.239258 -1.121099,0 -2.199676,-0.446269 -2.992675,-1.239258 -0.79297,-0.79297 -1.237793,-1.867183 -1.237793,-2.988282 0,-1.121098 0.444803,-2.198211 1.237793,-2.99121 0.791928,-0.791929 1.868766,-1.238091 2.988281,-1.239258 z m -35.808106,3.733886 v 0.0015 c -1.843798,0 -3.688014,0.698289 -5.078613,2.088867 L 39.98145,94.144078 c -2.781197,2.781197 -2.781197,7.379052 0,10.160152 l 18.94043,18.94043 c 2.781197,2.7812 7.363811,2.7695 10.145508,-0.0117 l 18.94043,-18.94922 c 2.781197,-2.7812 2.797384,-7.362339 0.01611,-10.144037 L 69.082031,75.200684 C 67.691433,73.810085 65.844186,73.111816 64.000488,73.111816 Z M 54.382329,96.546387 H 73.59815 c 0.707029,0 1.382324,0.285651 1.882324,0.789551 0.496089,0.499999 0.777337,1.179719 0.773437,1.886718 -0.0039,1.468794 -1.190963,2.656154 -2.655761,2.660154 H 54.382324 c -1.464798,-0.004 -2.651862,-1.19136 -2.655761,-2.660154 0,-0.707029 0.277337,-1.386719 0.773437,-1.886718 0.5,-0.50391 1.175325,-0.789551 1.882324,-0.789551 z" />
</svg>
