<?xml version="1.0" encoding="UTF-8"?>
<svg width="128pt" height="128pt" version="1.1" viewBox="0 0 128 128" xmlns="http://www.w3.org/2000/svg">
 <path d="m128 76.801v-25.602l-17.293-1.125c-0.96875-3.2266-2.2539-6.3477-3.8398-9.3203l11.418-13.02-18.086-18.031-13.004 11.441c-2.9688-1.5938-6.0898-2.8828-9.3203-3.8398l-1.0742-17.305h-25.602l-1.1016 17.293c-3.2305 0.95312-6.3516 2.2383-9.3164 3.8398l-13.004-11.43-18.062 18.074 11.418 13.02v-0.003906c-1.5859 2.9727-2.8711 6.0938-3.8398 9.3203l-17.293 1.0859v25.602l17.293 1.1016c0.96484 3.2266 2.25 6.3477 3.8398 9.3164l-11.391 13.02 18.059 18.059 12.992-11.441c2.9688 1.5938 6.0898 2.8828 9.3203 3.8398l1.0859 17.305h25.602l1.125-17.293c3.2344-0.94922 6.3555-2.2344 9.3203-3.8398l12.992 11.441 18.074-18.047-11.473-13.031c1.5977-2.9648 2.8828-6.0898 3.8398-9.3164zm-64 10.109c-6.0664 0-11.887-2.4141-16.176-6.707-4.2891-4.2891-6.6992-10.109-6.6992-16.176 0-6.0703 2.4102-11.891 6.6992-16.18 4.2891-4.293 10.109-6.7031 16.176-6.707s11.887 2.4023 16.184 6.6875c4.293 4.2891 6.707 10.105 6.7148 16.172 0.007812 6.0781-2.4023 11.906-6.6992 16.203-4.293 4.3008-10.121 6.7109-16.199 6.707z"/>
</svg>
