<?xml version="1.0" encoding="UTF-8" standalone="no"?>
<svg
   width="128pt"
   height="128pt"
   version="1.1"
   viewBox="0 0 128 128"
   id="svg275"
   sodipodi:docname="tag_write.svg"
   xml:space="preserve"
   inkscape:version="1.2 (dc2aedaf03, 2022-05-15)"
   xmlns:inkscape="http://www.inkscape.org/namespaces/inkscape"
   xmlns:sodipodi="http://sodipodi.sourceforge.net/DTD/sodipodi-0.dtd"
   xmlns="http://www.w3.org/2000/svg"
   xmlns:svg="http://www.w3.org/2000/svg"><defs
     id="defs279" /><sodipodi:namedview
     id="namedview277"
     pagecolor="#ffffff"
     bordercolor="#000000"
     borderopacity="0.25"
     inkscape:showpageshadow="2"
     inkscape:pageopacity="0.0"
     inkscape:pagecheckerboard="0"
     inkscape:deskcolor="#d1d1d1"
     inkscape:document-units="pt"
     showgrid="false"
     inkscape:zoom="3.6335897"
     inkscape:cx="159.48416"
     inkscape:cy="105.1302"
     inkscape:window-width="1835"
     inkscape:window-height="1057"
     inkscape:window-x="1912"
     inkscape:window-y="-8"
     inkscape:window-maximized="1"
     inkscape:current-layer="svg275" /><path
     id="path273"
     d="M 70.22168 -0.0043945313 C 66.206084 0.12451534 62.165856 1.7193288 59.122559 4.7739258 L 4.8076172 59.088867 C -1.5868764 65.479461 -1.5985762 76.06285 4.7958984 82.464844 L 45.533203 123.19775 C 51.939397 129.60395 62.520721 129.58932 68.907715 123.19482 L 123.21973 68.874023 C 126.28222 65.823226 127.85646 61.815482 127.98926 57.788086 L 127.99365 16.476563 C 127.98584 7.4301649 120.56879 0.019851132 111.53027 0.019042969 L 111.52881 0.019042969 L 70.22168 -0.0043945313 z M 97.831055 15.082031 C 106.16695 15.082031 112.91309 21.835971 112.91309 30.164063 C 112.91309 38.492154 106.16695 45.246094 97.831055 45.246094 C 89.506863 45.246094 82.749023 38.492154 82.749023 30.164063 C 82.749023 21.832071 89.506863 15.082031 97.831055 15.082031 z M 62.337891 34.999512 L 76.148438 48.812988 L 38.8125 86.150391 L 25.000488 86.150391 L 25.000488 72.338379 L 62.337891 34.999512 z M 25.000488 90.799805 L 87 90.799805 L 87 97.000488 L 25.000488 97.000488 L 25.000488 90.799805 z " /><g
     id="g285"
     transform="matrix(0.484375,0,0,0.48437122,25,35)"
     style="fill:#ffffff" /></svg>
