<?xml version="1.0" encoding="UTF-8" standalone="no"?>
<svg
   width="128pt"
   height="128pt"
   version="1.1"
   viewBox="0 0 128 128"
   id="svg386"
   sodipodi:docname="tag_read.svg"
   xml:space="preserve"
   inkscape:version="1.2 (dc2aedaf03, 2022-05-15)"
   xmlns:inkscape="http://www.inkscape.org/namespaces/inkscape"
   xmlns:sodipodi="http://sodipodi.sourceforge.net/DTD/sodipodi-0.dtd"
   xmlns="http://www.w3.org/2000/svg"
   xmlns:svg="http://www.w3.org/2000/svg"><defs
     id="defs390" /><sodipodi:namedview
     id="namedview388"
     pagecolor="#ffffff"
     bordercolor="#000000"
     borderopacity="0.25"
     inkscape:showpageshadow="2"
     inkscape:pageopacity="0.0"
     inkscape:pagecheckerboard="0"
     inkscape:deskcolor="#d1d1d1"
     inkscape:document-units="pt"
     showgrid="false"
     inkscape:zoom="3.6335897"
     inkscape:cx="151.77828"
     inkscape:cy="78.434832"
     inkscape:window-width="1835"
     inkscape:window-height="1057"
     inkscape:window-x="1912"
     inkscape:window-y="-8"
     inkscape:window-maximized="1"
     inkscape:current-layer="svg386" /><path
     id="path384"
     d="M 70.22168 -0.0043945313 C 66.206084 0.12451534 62.165856 1.7193288 59.122559 4.7739258 L 4.8076172 59.088867 C -1.5868764 65.479461 -1.5985762 76.06285 4.7958984 82.464844 L 45.533203 123.19775 C 51.939397 129.60395 62.520721 129.58932 68.907715 123.19482 L 123.21973 68.874023 C 126.28222 65.823226 127.85646 61.815482 127.98926 57.788086 L 127.99365 16.476563 C 127.98584 7.4301649 120.56879 0.019851132 111.53027 0.019042969 L 111.52881 0.019042969 L 70.22168 -0.0043945313 z M 97.831055 15.082031 C 106.16695 15.082031 112.91309 21.835971 112.91309 30.164063 C 112.91309 38.492154 106.16695 45.246094 97.831055 45.246094 C 89.506863 45.246094 82.749023 38.492154 82.749023 30.164063 C 82.749023 21.832071 89.506863 15.082031 97.831055 15.082031 z M 32.526855 50.012695 L 36.13916 50.012695 C 37.136297 50.012695 37.943848 50.853673 37.943848 51.88916 C 37.943848 52.924646 37.136297 53.76123 36.13916 53.76123 L 32.526855 53.76123 C 29.538154 53.766715 27.115163 56.282584 27.109863 59.38623 L 27.109863 70.186523 C 29.543291 67.250501 32.980955 65.417358 36.694336 65.071289 C 40.410628 64.725212 44.109293 65.898904 47.005371 68.337891 C 49.898807 70.777016 51.765345 74.292467 52.207031 78.137695 L 59.791992 78.137695 C 60.23372 74.292186 62.101681 70.776875 64.995117 68.337891 C 67.891669 65.898974 71.588665 64.72522 75.304688 65.071289 C 79.017865 65.417365 82.455868 67.25043 84.88916 70.186523 L 84.88916 59.38623 C 84.883879 56.282584 82.462335 53.76663 79.473633 53.76123 L 75.859863 53.76123 C 74.862726 53.76123 74.056641 52.924646 74.056641 51.88916 C 74.056641 50.853673 74.862726 50.012695 75.859863 50.012695 L 79.473633 50.012695 C 84.456473 50.01832 88.4946 54.211682 88.5 59.38623 L 88.5 80.012695 C 88.513203 85.143368 85.992733 89.922905 81.821777 92.677734 C 77.65367 95.429824 72.413952 95.770761 67.946777 93.584473 C 63.476962 91.394956 60.400309 86.978373 59.791992 81.88623 L 52.207031 81.88623 C 51.599014 86.978583 48.523526 91.395448 44.053711 93.584473 C 39.58701 95.770688 34.346956 95.429824 30.178711 92.677734 C 26.007758 89.922905 23.487258 85.143299 23.500488 80.012695 L 23.500488 59.38623 C 23.505905 54.211753 27.543948 50.018095 32.526855 50.012695 z " /></svg>
