<?xml version="1.0" encoding="UTF-8" standalone="no"?>
<svg
   width="128pt"
   height="128pt"
   version="1.1"
   viewBox="0 0 128 128"
   id="svg783"
   sodipodi:docname="text.svg"
   inkscape:version="1.2 (dc2aedaf03, 2022-05-15)"
   xmlns:inkscape="http://www.inkscape.org/namespaces/inkscape"
   xmlns:sodipodi="http://sodipodi.sourceforge.net/DTD/sodipodi-0.dtd"
   xmlns="http://www.w3.org/2000/svg"
   xmlns:svg="http://www.w3.org/2000/svg">
  <defs
     id="defs787" />
  <sodipodi:namedview
     id="namedview785"
     pagecolor="#ffffff"
     bordercolor="#000000"
     borderopacity="0.25"
     inkscape:showpageshadow="2"
     inkscape:pageopacity="0.0"
     inkscape:pagecheckerboard="0"
     inkscape:deskcolor="#d1d1d1"
     inkscape:document-units="pt"
     showgrid="false"
     inkscape:zoom="5.0039063"
     inkscape:cx="85.233411"
     inkscape:cy="85.333333"
     inkscape:window-width="1835"
     inkscape:window-height="1057"
     inkscape:window-x="1912"
     inkscape:window-y="-8"
     inkscape:window-maximized="1"
     inkscape:current-layer="svg783" />
  <path
     id="path771"
     d="m 33.385254,27.476074 c -0.187681,-0.0039 -0.376467,0.0034 -0.56543,0.02051 -1.511698,0.13672 -2.886701,0.937013 -3.75,2.187012 -1.390598,2.148398 -1.059087,4.980007 0.792481,6.745605 l 7.680175,7.680176 -7.809082,7.809082 c -1.785198,1.722698 -2.100618,4.468783 -0.752929,6.550781 0.839839,1.300799 2.22272,2.148889 3.761719,2.312989 1.539098,0.160159 3.066357,-0.383269 4.160156,-1.480957 l 9.331054,-9.379395 c 1.539099,-1.539098 2.406739,-3.628408 2.406739,-5.808105 0,-2.175798 -0.86773,-4.266078 -2.406739,-5.805176 l -9.331054,-9.33252 v 0.0044 c -0.939924,-0.943337 -2.203321,-1.4773 -3.51709,-1.504395 z m 29.333496,1.324219 c -2.828097,0 -5.116699,2.292997 -5.116699,5.121094 0,2.824197 2.288602,5.118164 5.116699,5.118164 h 32.000977 c 2.828097,0 5.121093,-2.293967 5.121093,-5.118164 0,-2.828097 -2.292996,-5.121094 -5.121093,-5.121094 z m 0,20.47998 c -2.828097,0 -5.116699,2.293967 -5.116699,5.118165 0,2.828097 2.288602,5.121093 5.116699,5.121093 h 32.000977 c 2.828097,0 5.121093,-2.292996 5.121093,-5.121093 0,-2.824198 -2.292996,-5.118165 -5.121093,-5.118165 z m -29.4375,20.481446 c -2.828097,0 -5.121094,2.290067 -5.121094,5.118164 0,2.828097 2.292997,5.121094 5.121094,5.121094 h 61.438477 c 2.828097,0 5.121093,-2.292997 5.121093,-5.121094 0,-2.828097 -2.292996,-5.118164 -5.121093,-5.118164 z m 0,20.475586 c -2.828097,0 -5.121094,2.292996 -5.121094,5.121093 0,2.828098 2.292997,5.121092 5.121094,5.121092 h 61.438477 c 2.828097,0 5.121093,-2.292994 5.121093,-5.121092 0,-2.828097 -2.292996,-5.121093 -5.121093,-5.121093 z" />
</svg>
