<?xml version="1.0" encoding="UTF-8" standalone="no"?>
<!-- Created with Inkscape (http://www.inkscape.org/) -->

<svg
   width="210mm"
   height="297mm"
   viewBox="0 0 210 297"
   version="1.1"
   id="svg5"
   inkscape:version="1.2 (dc2aedaf03, 2022-05-15)"
   sodipodi:docname="value.svg"
   xmlns:inkscape="http://www.inkscape.org/namespaces/inkscape"
   xmlns:sodipodi="http://sodipodi.sourceforge.net/DTD/sodipodi-0.dtd"
   xmlns="http://www.w3.org/2000/svg"
   xmlns:svg="http://www.w3.org/2000/svg">
  <sodipodi:namedview
     id="namedview7"
     pagecolor="#ffffff"
     bordercolor="#000000"
     borderopacity="0.25"
     inkscape:showpageshadow="2"
     inkscape:pageopacity="0.0"
     inkscape:pagecheckerboard="0"
     inkscape:deskcolor="#d1d1d1"
     inkscape:document-units="mm"
     showgrid="false"
     inkscape:zoom="0.55244701"
     inkscape:cx="125.80392"
     inkscape:cy="582.86133"
     inkscape:window-width="1835"
     inkscape:window-height="1057"
     inkscape:window-x="1912"
     inkscape:window-y="-8"
     inkscape:window-maximized="1"
     inkscape:current-layer="svg5" />
  <defs
     id="defs2" />
  <path
     id="path954"
     style="font-weight:bold;font-size:123.472px;line-height:0;-inkscape-font-specification:'sans-serif Bold';letter-spacing:15.875px;word-spacing:0px;fill:#000000;stroke:#000000;stroke-width:10;stroke-dasharray:none;paint-order:stroke fill markers"
     d="m 29.35118,77.350834 c -6.43543,0 -11.57691,2.41094 -15.424898,7.232116 -3.814817,4.772479 -5.7221316,11.785229 -5.7221316,21.03799 v 10.73785 c 0,8.66837 -1.3104132,14.7073 -3.9310262,18.1162 -2.6206131,3.36022 -6.8503032,5.04001 -12.6886308,5.04001 h -3.4829914 v 17.96997 h 3.4829914 c 5.8383276,0 10.0680177,1.70446 12.6886308,5.11338 2.620613,3.36021 3.9310262,9.37445 3.9310262,18.04282 v 10.73836 c 0,9.25277 1.9073146,16.265 5.7221316,21.03747 3.847988,4.82119 8.989468,7.23212 15.424898,7.23212 H 42.984973 V 203.2863 h -5.672005 c -1.990339,0 -3.798515,-0.21904 -5.423959,-0.65733 -1.625443,-0.3896 -2.96873,-1.21792 -4.030245,-2.48409 -1.127858,-1.26616 -1.9739,-3.11665 -2.537829,-5.55159 -0.56393,-2.38624 -0.845943,-5.47844 -0.845943,-9.27695 v -7.9623 c 0,-6.81784 -1.310414,-12.51586 -3.931026,-17.09354 -2.587441,-4.57768 -6.285978,-8.20566 -11.0959642,-10.88408 v -1.75287 c 4.8099862,-2.67844 8.5085232,-6.30641 11.0959642,-10.88409 2.620612,-4.57768 3.931026,-10.27571 3.931026,-17.09353 v -7.96231 c 0,-3.7985 0.282013,-6.89071 0.845943,-9.27695 0.563929,-2.434939 1.409971,-4.285433 2.537829,-5.5516 1.094687,-1.217469 2.437974,-2.045281 4.030245,-2.48357 1.625444,-0.438287 3.43362,-0.65784 5.423959,-0.65784 h 5.672005 V 77.350834 Z m 137.66343,0 V 93.71366 h 5.67253 c 1.99033,0 3.78155,0.219553 5.37383,0.65784 1.62544,0.438289 2.98568,1.266101 4.08037,2.48357 1.12785,1.266167 1.9739,3.116661 2.53783,5.5516 0.56392,2.38624 0.84594,5.47845 0.84594,9.27695 v 7.96231 c 0,6.81782 1.29346,12.51585 3.8809,17.09353 2.62061,4.57768 6.33611,8.20565 11.14609,10.88409 v 1.75287 c -4.80998,2.67842 -8.52548,6.3064 -11.14609,10.88408 -2.58744,4.57768 -3.8809,10.2757 -3.8809,17.09354 v 7.9623 c 0,3.79851 -0.28202,6.89071 -0.84594,9.27695 -0.56393,2.43494 -1.40998,4.28543 -2.53783,5.55159 -1.09469,1.21748 -2.45493,2.04581 -4.08037,2.48409 -1.59228,0.43829 -3.3835,0.65733 -5.37383,0.65733 h -5.67253 v 16.36282 h 13.6338 c 6.43542,0 11.56098,-2.41093 15.3758,-7.23212 3.84798,-4.77247 5.77174,-11.7847 5.77174,-21.03747 v -10.73836 c 0,-8.66837 1.31042,-14.68261 3.93103,-18.04282 2.62061,-3.40892 6.84979,-5.11338 12.68811,-5.11338 h 3.48351 V 139.515 h -3.48351 c -5.83832,0 -10.0675,-1.67979 -12.68811,-5.04001 -2.62061,-3.4089 -3.93103,-9.44783 -3.93103,-18.1162 v -10.73785 c 0,-9.252761 -1.92376,-16.265511 -5.77174,-21.03799 -3.81482,-4.821176 -8.94038,-7.232116 -15.3758,-7.232116 z M 67.283231,82.245109 94.301738,191.01418 H 115.69785 L 142.71687,82.245109 H 123.16199 L 105.24887,158.65388 87.335758,82.245109 Z" />
</svg>
